<svg width="49" height="48" viewBox="0 0 49 48" fill="none" xmlns="http://www.w3.org/2000/svg">
<rect x="0.859619" width="48" height="48" rx="24" fill="#A0AEC0"/>
<path d="M39.4846 38.3021C35.7699 41.97 30.616 44.25 24.921 44.25C19.1617 44.25 13.9581 41.913 10.2346 38.1709V35.7C10.2346 32.5536 12.8525 30 16.0846 30H33.6346C36.8667 30 39.4846 32.5536 39.4846 35.7V38.3021Z" fill="white"/>
<path d="M24.8582 9C20.0948 9 16.2346 12.8602 16.2346 17.6236C16.2346 22.3898 20.0948 26.25 24.8582 26.25C29.6216 26.25 33.4846 22.3898 33.4846 17.6236C33.4846 12.8602 29.6216 9 24.8582 9Z" fill="white"/>
</svg>
